<svg width="714" height="649" viewBox="0 0 714 649" fill="none" xmlns="http://www.w3.org/2000/svg">
<path id="contact-us__circle" fill-rule="evenodd" clip-rule="evenodd" d="M251.035 237.125L125.277 133.298L263.005 220.538L151.29 101.879L276.889 205.706L180.974 73.9684L292.689 192.787L214.01 49.8857L309.925 181.782L249.759 30.2687L328.278 173.17L287.742 15.2768L347.748 166.79L327.161 5.22906L367.697 162.963V0.125441L388.125 161.687L408.553 0.125441L408.393 162.963L448.93 5.22906L428.502 166.79L488.509 15.2768L447.972 173.17L526.492 30.2687L466.325 181.782L562.24 49.8857L483.561 192.787L595.116 73.9684L499.361 205.706L624.96 101.879L513.245 220.538L650.973 133.298L525.215 237.125L672.838 167.747L535.11 254.987L690.233 204.589L542.61 273.966L702.841 243.345L547.717 293.743L710.501 283.376L550.271 313.838L713.055 324.046L550.271 334.253L710.501 364.715L547.717 354.508L702.841 404.747L542.61 374.284L690.233 443.662L535.11 393.264L672.838 480.504L525.215 411.126L650.973 514.953L513.245 427.553L624.96 546.372L499.361 442.386L595.116 574.283L483.561 455.464L562.24 598.206L466.325 466.309L526.492 617.823L447.972 475.081L488.509 632.815L428.502 481.301L448.93 643.022L408.393 485.129L408.553 648.125L388.125 486.405L367.697 648.125L367.697 485.129L327.161 643.022L347.748 481.301L287.742 632.815L328.278 475.081L249.759 617.823L309.925 466.309L214.01 598.206L292.689 455.464L180.974 574.283L276.889 442.386L151.29 546.372L263.005 427.553L125.277 514.953L251.035 411.126L103.413 480.504L241.141 393.264L86.0171 443.662L233.64 374.284L73.4093 404.747L228.533 354.508L65.7489 364.715L225.979 334.253L63.1954 324.046L225.979 313.838L65.7489 283.376L228.533 293.743L73.4093 243.345L233.64 273.966L86.0171 204.589L241.141 254.987L103.413 167.747L251.035 237.125ZM233.896 251.582L102.878 168.592L103.838 166.842L244.282 232.846L124.64 134.069L125.812 132.453L256.841 215.45L150.562 102.564L151.927 101.108L271.41 199.878L180.166 74.557L181.703 73.2834L287.995 186.334L213.134 50.368L214.819 49.2976L306.067 174.777L248.829 30.6378L250.635 29.7871L325.339 165.745L286.773 15.5255L288.671 14.9086L345.752 159.034L326.169 5.35547L328.129 4.98015L366.697 155.054V0.125441L368.689 0L388.125 153.715L407.561 1.49012e-07L409.553 0.126421L409.401 155.024L447.961 4.98015L449.922 5.3545L430.487 159.062L487.579 14.9086L489.477 15.5255L450.911 165.745L525.615 29.7871L527.421 30.6378L470.183 174.777L561.431 49.2976L563.116 50.368L488.267 186.314L594.387 73.284L595.925 74.5564L504.821 199.894L624.323 101.108L625.688 102.564L519.409 215.45L650.438 132.453L651.61 134.069L531.968 232.846L672.412 166.842L673.373 168.592L542.354 251.582L689.924 203.638L690.658 205.494L550.224 271.493L702.653 242.363L703.15 244.296L555.579 292.24L710.438 282.378L710.688 284.359L558.26 313.337L713.117 323.048V325.044L558.26 334.754L710.688 363.733L710.439 365.713L555.579 356.003L703.149 403.795L702.654 405.729L550.196 376.745L690.658 442.757L689.924 444.613L542.354 396.669L673.373 479.659L672.412 481.409L531.968 415.405L651.61 514.182L650.438 515.797L519.409 432.649L625.688 545.687L624.322 547.142L504.821 448.205L595.925 573.695L594.387 574.967L488.277 461.948L563.116 597.723L561.431 598.794L470.183 473.314L527.421 617.454L525.615 618.305L450.911 482.498L489.477 632.566L487.579 633.183L430.486 489.025L449.922 642.897L447.961 643.271L409.401 493.076L409.553 648.125L407.561 648.251L388.125 494.384L368.689 648.251L366.697 648.125L366.697 493.045L328.129 643.271L326.169 642.896L345.753 489.054L288.671 633.183L286.773 632.566L325.339 482.498L250.635 618.305L248.829 617.454L306.067 473.314L214.819 598.794L213.134 597.723L287.984 461.928L181.703 574.968L180.166 573.694L271.41 448.221L151.928 547.142L150.562 545.687L256.841 432.649L125.813 515.797L124.64 514.182L244.282 415.405L103.838 481.409L102.878 479.659L233.896 396.669L86.3261 444.613L85.5917 442.757L226.054 376.745L73.5961 405.729L73.1012 403.795L220.671 356.003L65.8115 365.713L65.5621 363.733L217.99 334.754L63.1328 325.044L63.1328 323.048L217.99 313.337L65.5621 284.359L65.8124 282.378L220.671 292.24L73.1003 244.296L73.597 242.363L226.026 271.493L85.5917 205.494L86.3261 203.638L233.896 251.582Z" fill="black"/>
<path d="M171.036 216.479L252.711 260.98L171.036 305.839L126.355 387.336L81.6754 305.839L0.000152377 260.98L81.6754 216.479L126.355 134.625L171.036 216.479Z" fill="#191A23"/>
<path d="M150.715 467.432L196.422 492.336L150.715 517.439L125.711 563.046L100.707 517.439L55.0003 492.336L100.707 467.432L125.711 421.625L150.715 467.432Z" fill="#B9FF66"/>
</svg>
